<svg width="25" height="24" viewBox="0 0 25 24" fill="none" xmlns="http://www.w3.org/2000/svg">
<g clip-path="url(#clip0_1195_648)">
<path d="M22.1252 18.7035C21.7623 19.542 21.3326 20.3139 20.8349 21.0235C20.1564 21.9908 19.6008 22.6605 19.1727 23.0323C18.509 23.6426 17.7979 23.9552 17.0365 23.973C16.4898 23.973 15.8306 23.8175 15.0632 23.5019C14.2933 23.1878 13.5858 23.0323 12.9388 23.0323C12.2603 23.0323 11.5327 23.1878 10.7543 23.5019C9.97478 23.8175 9.34681 23.9819 8.86667 23.9982C8.13647 24.0293 7.40865 23.7078 6.68215 23.0323C6.21846 22.6279 5.63848 21.9345 4.94369 20.9524C4.19823 19.9035 3.58536 18.6872 3.10523 17.3006C2.59102 15.8029 2.33325 14.3526 2.33325 12.9484C2.33325 11.3401 2.6808 9.95284 3.37692 8.79035C3.92402 7.8566 4.65184 7.12003 5.56278 6.57931C6.47371 6.03858 7.45798 5.76304 8.51794 5.74541C9.09792 5.74541 9.85849 5.92481 10.8036 6.27739C11.7461 6.63116 12.3513 6.81056 12.6166 6.81056C12.815 6.81056 13.4873 6.60079 14.6269 6.18258C15.7047 5.79474 16.6143 5.63415 17.3594 5.69741C19.3786 5.86037 20.8956 6.65634 21.9045 8.09037C20.0986 9.18456 19.2053 10.7171 19.2231 12.6831C19.2394 14.2145 19.7949 15.4888 20.8867 16.5006C21.3815 16.9703 21.9341 17.3332 22.5489 17.591C22.4156 17.9776 22.2748 18.348 22.1252 18.7035ZM17.4942 0.480381C17.4942 1.68066 17.0557 2.80135 16.1817 3.83865C15.1269 5.0718 13.8511 5.78437 12.4676 5.67193C12.45 5.52793 12.4397 5.37638 12.4397 5.21713C12.4397 4.06487 12.9414 2.83172 13.8321 1.82345C14.2769 1.31295 14.8425 0.888472 15.5284 0.54986C16.2128 0.216299 16.8602 0.0318332 17.4691 0.000244141C17.4868 0.160702 17.4942 0.32117 17.4942 0.480365V0.480381Z" fill="#2C234D"/>
</g>
<defs>
<clipPath id="clip0_1195_648">
<rect width="24" height="24" fill="white" transform="translate(0.333252)"/>
</clipPath>
</defs>
</svg>
