<svg width="25" height="24" viewBox="0 0 25 24" fill="none" xmlns="http://www.w3.org/2000/svg">
<g clip-path="url(#clip0_1195_761)">
<path fill-rule="evenodd" clip-rule="evenodd" d="M8.98675 0H16.3467C23.0667 0 24.6667 1.6 24.6667 8.32V15.68C24.6667 22.4 23.0667 24 16.3467 24H8.98675C2.26675 24 0.666748 22.4 0.666748 15.68V8.32C0.666748 1.6 2.26675 0 8.98675 0Z" fill="#2787F5"/>
<path fill-rule="evenodd" clip-rule="evenodd" d="M20.3211 8.26828C20.4323 7.89747 20.3211 7.625 19.7919 7.625H18.0419C17.5969 7.625 17.3918 7.86037 17.2805 8.11992C17.2805 8.11992 16.3906 10.2891 15.1299 11.6981C14.722 12.106 14.5366 12.2358 14.3141 12.2358C14.2029 12.2358 14.0419 12.106 14.0419 11.7352V8.26828C14.0419 7.82331 13.9127 7.625 13.5419 7.625H10.7919C10.5138 7.625 10.3466 7.83152 10.3466 8.02725C10.3466 8.44907 10.9769 8.54634 11.0419 9.73292V12.31C11.0419 12.875 10.9399 12.9774 10.7174 12.9774C10.1241 12.9774 8.68102 10.7986 7.82512 8.30534C7.65739 7.82075 7.48915 7.625 7.0419 7.625H5.2919C4.7919 7.625 4.69189 7.86037 4.69189 8.11992C4.69189 8.58344 5.28518 10.8824 7.45435 13.923C8.90044 15.9994 10.9379 17.125 12.7919 17.125C13.9043 17.125 14.0419 16.875 14.0419 16.4444V14.875C14.0419 14.375 14.1473 14.2752 14.4995 14.2752C14.7591 14.2752 15.2041 14.405 16.2423 15.4061C17.4289 16.5927 17.6245 17.125 18.2919 17.125H20.0419C20.5419 17.125 20.7919 16.875 20.6477 16.3816C20.4899 15.8899 19.9233 15.1765 19.1716 14.3308C18.7637 13.8488 18.1519 13.3297 17.9665 13.0701C17.707 12.7364 17.7811 12.5881 17.9665 12.2914C17.9665 12.2914 20.0986 9.28796 20.3211 8.26828Z" fill="white"/>
</g>
<defs>
<clipPath id="clip0_1195_761">
<rect width="24" height="24" fill="white" transform="translate(0.666748)"/>
</clipPath>
</defs>
</svg>
